<svg xmlns="http://www.w3.org/2000/svg" xmlns:xlink="http://www.w3.org/1999/xlink" version="1.1" x="0px" y="0px" viewBox="0 0 100 100" enable-background="new 0 0 100 100" xml:space="preserve"><g><path fill="#ffffff" d="M72.316,28.728v-3.293c0-1.338-1.089-2.426-2.427-2.426h-1.767v-3.467c0-1.338-1.089-2.426-2.427-2.426   H54.388c1.475-1.286,2.411-3.173,2.411-5.277c0-3.865-3.144-7.009-7.009-7.009c-3.864,0-7.009,3.145-7.009,7.009   c0,2.104,0.938,3.992,2.411,5.277H34.304c-1.338,0-2.427,1.088-2.427,2.426v3.467H30.11c-1.338,0-2.427,1.088-2.427,2.426v3.293   c0,1.338,1.089,2.426,2.427,2.426h2.198c-0.003,4.736-0.013,25.763-0.013,25.763c0,4.028,3.159,7.324,7.13,7.562v2.604h-0.048   c-3.904,0-7.082,3.177-7.082,7.082v12.689H30.11c-1.338,0-2.427,1.088-2.427,2.426v3.293c0,1.338,1.089,2.426,2.427,2.426H69.89   c1.338,0,2.427-1.088,2.427-2.426V89.28c0-1.338-1.089-2.426-2.427-2.426h-2.187V74.165c0-3.905-3.177-7.082-7.081-7.082h-0.049   v-2.604c3.971-0.237,7.13-3.533,7.13-7.562c0,0-0.01-21.026-0.013-25.763h2.199C71.228,31.154,72.316,30.066,72.316,28.728z    M49.79,7.103c2.611,0,4.734,2.125,4.734,4.735c0,2.61-2.123,4.734-4.734,4.734c-2.61,0-4.734-2.125-4.734-4.734   C45.056,9.228,47.18,7.103,49.79,7.103z M34.151,19.542c0-0.081,0.071-0.152,0.152-0.152h31.393c0.081,0,0.152,0.071,0.152,0.152   v3.293c0,0.081-0.071,0.152-0.152,0.152H34.304c-0.081,0-0.152-0.071-0.152-0.152V19.542z M70.042,89.28v3.293   c0,0.081-0.07,0.152-0.152,0.152H30.11c-0.081,0-0.152-0.071-0.152-0.152V89.28c0-0.081,0.071-0.152,0.152-0.152H69.89   C69.972,89.128,70.042,89.199,70.042,89.28z M60.622,69.357c2.65,0,4.807,2.156,4.807,4.808v12.63H34.57v-12.63   c0-2.651,2.157-4.808,4.808-4.808h0.048h21.147H60.622z M41.7,67.083v-2.464h16.599v2.464H41.7z M65.429,56.917   c0,2.928-2.383,5.311-5.311,5.311h-9.55V58.88c2.895-0.228,5.182-2.65,5.182-5.602c0-3.321-4.872-9.828-5.08-10.103l-0.545-0.724   l-0.545,0.724c-0.207,0.275-5.078,6.782-5.078,10.103c0,2.786,2.039,5.1,4.702,5.542v3.408h-9.323   c-2.928,0-5.311-2.382-5.311-5.311c0,0,0.009-20.997,0.013-25.724h30.833C65.42,35.92,65.429,56.917,65.429,56.917z M50.125,57.537   c-2.348,0-4.258-1.911-4.258-4.259c0-2.102,2.706-6.35,4.258-8.535c1.553,2.186,4.261,6.433,4.261,8.535   C54.386,55.626,52.475,57.537,50.125,57.537z M29.958,28.728v-3.293c0-0.081,0.071-0.152,0.152-0.152H69.89   c0.082,0,0.152,0.071,0.152,0.152v3.293c0,0.081-0.07,0.152-0.152,0.152H30.11C30.029,28.88,29.958,28.809,29.958,28.728z"></path><circle fill="#ffffff" cx="49.772" cy="79.41" r="2.729"></circle><path fill="#ffffff" d="M62.055,33.695c-0.377,0-0.683,0.305-0.683,0.682v16.375c0,0.377,0.306,0.683,0.683,0.683   c0.376,0,0.682-0.306,0.682-0.683V34.377C62.736,34,62.431,33.695,62.055,33.695z"></path><path fill="#ffffff" d="M59.173,33.695c-0.376,0-0.682,0.305-0.682,0.682v6.217c0,0.376,0.306,0.682,0.682,0.682   c0.377,0,0.683-0.306,0.683-0.682v-6.217C59.855,34,59.55,33.695,59.173,33.695z"></path></g></svg>
